<svg width="481" height="416" viewBox="0 0 481 416" fill="none" xmlns="http://www.w3.org/2000/svg">
<path fill-rule="evenodd" clip-rule="evenodd" d="M370.088 -288.941C350.834 -281.582 335.28 -267.227 324.942 -247.284C319.873 -237.505 319.103 -233.338 319.013 -215.148C318.921 -196.596 319.627 -192.693 325.301 -180.408C333.408 -162.85 350.33 -146.902 367.866 -140.295C385.884 -133.506 415.191 -134.811 431.345 -143.122C453.915 -154.734 466.811 -170.871 473.081 -195.342C481.989 -230.115 464.528 -267.891 431.735 -284.789C421.914 -289.849 416.867 -290.879 399.21 -291.431C384.978 -291.875 375.687 -291.081 370.088 -288.941ZM270.992 -260.05C190.711 -199.799 167.554 -105.19 211.237 -15.9183C229.082 20.5511 263.283 56.8621 298.888 77.1394C307.479 82.0323 323.915 89.2725 335.41 93.2281C355.329 100.081 357.859 100.422 389.31 100.486C428.261 100.563 445.113 96.6931 476.577 80.4438C505.905 65.2946 522.621 45.3517 530.121 16.5558C541.807 -28.3131 519.429 -74.6033 476.21 -94.9533C464.378 -100.524 458.493 -101.835 442.11 -102.554C421.661 -103.452 418.425 -102.711 381.61 -88.6811C357.557 -79.5181 326.889 -91.2155 306.849 -117.2C276.206 -156.93 267.85 -214.361 286.051 -260.143C288.915 -267.343 290.996 -273.494 290.677 -273.813C290.36 -274.132 281.501 -267.937 270.992 -260.05ZM170.036 -200.298C128.141 -156.778 98.3972 -98.6252 87.6062 -39.1482C82.4274 -10.5966 82.401 42.826 87.5556 70.8518C110.926 197.959 209.372 297.577 336.864 323.135C366.34 329.044 427.962 328.476 458.025 322.019C559.15 300.299 643.735 230.4 683.109 136.014C725.725 33.8567 710.582 -84.2283 643.513 -172.77C636.396 -182.161 626.228 -194.074 620.915 -199.24L611.257 -208.634L619.329 -192.083C635.906 -158.102 643.41 -124.508 643.41 -84.2966C643.41 -52.5506 639.423 -29.037 629.178 -0.377563C601.902 75.936 537.35 134.716 457.51 155.932C438.016 161.113 431.251 161.802 398.11 161.967C359.029 162.161 351.52 161.089 318.91 150.661C268.6 134.577 219.151 96.6116 189.167 51.0518C141.458 -21.4404 135.89 -114.868 174.583 -193.698C180.374 -205.495 184.936 -215.148 184.721 -215.148C184.507 -215.148 177.899 -208.467 170.036 -200.298Z" fill="white" fill-opacity="0.2"/>
<path fill-rule="evenodd" clip-rule="evenodd" d="M559.144 -332C696.465 -270.618 792 -134.132 792 24.3851C792 240.33 614.705 415.389 396 415.389C177.295 415.389 0 240.33 0 24.3851C0 -134.122 95.5232 -270.601 232.83 -331.988C107.848 -272.124 21.678 -145.628 21.678 0.740753C21.678 204.864 189.267 370.339 395.999 370.339C602.731 370.339 770.32 204.864 770.32 0.740753C770.32 -145.637 684.139 -272.14 559.144 -332Z" fill="white" fill-opacity="0.2"/>
</svg>
