<svg width="631" height="636" viewBox="0 0 631 636" fill="none" xmlns="http://www.w3.org/2000/svg">
<path fill-rule="evenodd" clip-rule="evenodd" d="M423.825 49.4653C401.775 57.8928 383.963 74.3322 372.124 97.171C366.319 108.37 365.437 113.142 365.334 133.973C365.228 155.219 366.037 159.688 372.534 173.757C381.819 193.865 401.198 212.128 421.281 219.694C441.915 227.469 475.476 225.975 493.977 216.457C519.824 203.159 534.593 184.679 541.773 156.655C551.974 116.833 531.977 73.5714 494.423 54.2195C483.176 48.4248 477.396 47.2457 457.175 46.6133C440.877 46.1044 430.237 47.0139 423.825 49.4653ZM310.339 82.5507C218.402 151.551 191.883 259.897 241.909 362.131C262.344 403.896 301.511 445.479 342.286 468.701C352.124 474.304 370.947 482.596 384.111 487.126C406.922 494.974 409.82 495.364 445.838 495.437C490.444 495.525 509.743 491.094 545.776 472.485C579.363 455.136 598.506 432.297 607.095 399.32C620.478 347.936 594.85 294.925 545.356 271.62C531.806 265.241 525.067 263.739 506.304 262.915C482.886 261.887 479.18 262.736 437.02 278.803C409.475 289.296 374.353 275.9 351.404 246.143C316.311 200.645 306.742 134.874 327.585 82.4448C330.865 74.1987 333.249 67.1543 332.883 66.789C332.521 66.4237 322.375 73.5184 310.339 82.5507ZM194.725 150.979C146.747 200.818 112.684 267.415 100.326 335.528C94.3953 368.225 94.3651 429.405 100.268 461.5C127.032 607.064 239.772 721.147 385.777 750.415C419.532 757.182 490.102 756.532 524.53 749.138C640.339 724.263 737.206 644.215 782.297 536.124C831.101 419.133 813.76 283.902 736.952 182.505C728.802 171.749 717.157 158.106 711.072 152.191L700.012 141.433L709.256 160.386C728.24 199.302 736.833 237.774 736.833 283.824C736.833 320.18 732.268 347.107 720.535 379.928C689.299 467.323 615.374 534.637 523.94 558.935C501.616 564.868 493.868 565.657 455.915 565.846C411.16 566.067 402.561 564.84 365.215 552.898C307.601 534.478 250.971 491 216.634 438.825C161.997 355.807 155.62 248.814 199.932 158.537C206.564 145.028 211.789 133.973 211.542 133.973C211.298 133.973 203.729 141.624 194.725 150.979Z" fill="black" fill-opacity="0.1"/>
<path fill-rule="evenodd" clip-rule="evenodd" d="M640.329 0.151855C797.591 70.4462 907 226.751 907 408.287C907 655.587 703.961 856.064 453.5 856.064C203.039 856.064 0 655.587 0 408.287C0 226.765 109.391 70.4717 266.633 0.169006C123.505 68.7268 24.8254 213.589 24.8254 381.209C24.8254 614.971 216.749 804.473 453.499 804.473C690.248 804.473 882.172 614.971 882.172 381.209C882.172 213.575 783.476 68.7026 640.329 0.151855Z" fill="black" fill-opacity="0.1"/>
</svg>
