<svg width="407" height="343" viewBox="0 0 407 343" fill="none" xmlns="http://www.w3.org/2000/svg">
<path fill-rule="evenodd" clip-rule="evenodd" d="M8.60349 -320.44C-9.53313 -313.509 -24.1842 -299.987 -33.9218 -281.202C-38.6964 -271.99 -39.4217 -268.065 -39.5066 -250.932C-39.5937 -233.456 -38.9285 -229.78 -33.5841 -218.208C-25.9477 -201.67 -10.0077 -186.648 6.5105 -180.424C23.4825 -174.029 51.0873 -175.258 66.3041 -183.087C87.5636 -194.025 99.7114 -209.225 105.617 -232.275C114.008 -265.03 97.5603 -300.613 66.6709 -316.53C57.4202 -321.296 52.6664 -322.266 36.0343 -322.786C22.6287 -323.205 13.8774 -322.457 8.60349 -320.44ZM-84.7404 -293.227C-160.36 -236.474 -182.173 -147.357 -141.026 -63.268C-124.217 -28.9158 -92.0017 5.2872 -58.4639 24.3874C-50.3716 28.9962 -34.8896 35.8161 -24.0619 39.542C-5.29947 45.9972 -2.91632 46.3184 26.709 46.3785C63.3988 46.451 79.2724 42.8059 108.91 27.5C136.536 13.2303 152.281 -5.55496 159.345 -32.6791C170.353 -74.9433 149.274 -118.546 108.564 -137.715C97.4194 -142.962 91.8761 -144.197 76.4438 -144.874C57.1819 -145.72 54.1336 -145.022 19.456 -131.807C-3.20023 -123.176 -32.0878 -134.194 -50.9643 -158.67C-79.8291 -196.093 -87.6996 -250.19 -70.5556 -293.314C-67.8575 -300.097 -65.8971 -305.891 -66.1976 -306.191C-66.496 -306.492 -74.8411 -300.656 -84.7404 -293.227ZM-179.835 -236.944C-219.298 -195.95 -247.315 -141.173 -257.48 -85.1493C-262.358 -58.2552 -262.383 -7.93396 -257.527 18.4648C-235.513 138.193 -142.783 232.028 -22.6921 256.102C5.0723 261.668 63.1169 261.133 91.4347 255.051C186.689 234.591 266.364 168.751 303.452 79.8438C343.594 -16.3827 329.331 -127.612 266.155 -211.013C259.451 -219.86 249.873 -231.081 244.869 -235.947L235.771 -244.796L243.374 -229.206C258.989 -197.198 266.058 -165.554 266.058 -127.677C266.058 -97.7736 262.303 -75.6251 252.652 -48.6294C226.96 23.2539 166.155 78.6211 90.9498 98.6062C72.5872 103.486 66.215 104.135 34.9981 104.29C-1.81387 104.473 -8.8866 103.464 -39.604 93.641C-86.993 78.4905 -133.572 42.7292 -161.815 -0.185699C-206.754 -68.4695 -211.999 -156.473 -175.552 -230.727C-170.098 -241.839 -165.8 -250.932 -166.003 -250.932C-166.204 -250.932 -172.429 -244.638 -179.835 -236.944Z" fill="black" fill-opacity="0.1"/>
<path fill-rule="evenodd" clip-rule="evenodd" d="M186.683 -361C316.032 -303.182 406.022 -174.62 406.022 -25.3043C406.022 178.105 239.019 343 33.0108 343C-172.997 343 -340 178.105 -340 -25.3043C-340 -174.61 -250.022 -303.165 -120.687 -360.989C-238.413 -304.6 -319.581 -185.447 -319.581 -47.576C-319.581 144.697 -161.72 300.566 33.0099 300.566C227.74 300.566 385.6 144.697 385.6 -47.576C385.6 -185.456 304.422 -304.616 186.683 -361Z" fill="black" fill-opacity="0.1"/>
</svg>
