<svg width="687" height="671" viewBox="0 0 687 671" fill="none" xmlns="http://www.w3.org/2000/svg">
<path fill-rule="evenodd" clip-rule="evenodd" d="M205.889 -131.914C183.94 -123.525 166.209 -107.16 154.424 -84.4259C148.646 -73.2781 147.768 -68.5281 147.665 -47.7925C147.56 -26.6431 148.365 -22.194 154.833 -8.18975C164.074 11.826 183.365 30.0061 203.356 37.5374C223.896 45.2769 257.304 43.7896 275.72 34.3147C301.449 21.0778 316.15 2.68211 323.298 -25.2136C333.453 -64.854 313.547 -107.918 276.164 -127.181C264.969 -132.949 259.215 -134.123 239.087 -134.753C222.863 -135.259 212.272 -134.354 205.889 -131.914ZM92.9219 -98.9794C1.40491 -30.2947 -24.9936 77.5564 24.8039 179.323C45.1458 220.897 84.1341 262.291 124.722 285.406C134.516 290.984 153.253 299.238 166.357 303.747C189.063 311.559 191.948 311.948 227.801 312.021C272.204 312.108 291.415 307.697 327.283 289.173C360.716 271.904 379.772 249.169 388.321 216.343C401.643 165.194 376.133 112.424 326.864 89.2259C313.377 82.8758 306.668 81.381 287.991 80.561C264.68 79.5377 260.991 80.3829 219.023 96.376C191.604 106.822 156.643 93.4868 133.799 63.8656C98.8657 18.5749 89.3405 -46.8947 110.089 -99.0848C113.354 -107.293 115.727 -114.305 115.363 -114.669C115.002 -115.033 104.902 -107.97 92.9219 -98.9794ZM-22.1646 -30.864C-69.9232 18.7479 -103.83 85.0401 -116.132 152.842C-122.035 185.39 -122.066 246.29 -116.189 278.239C-89.5477 423.137 22.6772 536.699 168.014 565.833C201.616 572.57 271.863 571.923 306.134 564.562C421.413 539.801 517.838 460.119 562.723 352.521C611.304 236.065 594.042 101.452 517.585 0.517792C509.472 -10.1886 497.88 -23.769 491.824 -29.6577L480.814 -40.3665L490.015 -21.4994C508.913 17.2382 517.467 55.5343 517.467 101.374C517.467 137.564 512.923 164.368 501.243 197.039C470.15 284.034 396.562 351.041 305.547 375.228C283.324 381.134 275.612 381.919 237.833 382.107C193.282 382.328 184.722 381.107 147.547 369.219C90.1958 350.883 33.825 307.604 -0.355637 255.667C-54.7427 173.028 -61.0902 66.524 -16.9807 -23.3402C-10.3798 -36.7877 -5.17838 -47.7925 -5.42416 -47.7925C-5.66743 -47.7925 -13.2013 -40.1759 -22.1646 -30.864Z" fill="black" fill-opacity="0.1"/>
<path fill-rule="evenodd" clip-rule="evenodd" d="M421.404 -181.001C577.947 -111.027 686.856 44.5624 686.856 225.268C686.856 471.439 484.745 671 235.428 671C-13.8889 671 -216 471.439 -216 225.268C-216 44.5774 -107.11 -111.002 49.4122 -180.984C-93.0602 -112.739 -191.288 31.4614 -191.288 198.314C-191.288 431.009 -0.24144 619.645 235.427 619.645C471.094 619.645 662.141 431.009 662.141 198.314C662.141 31.4472 563.897 -112.763 421.404 -181.001Z" fill="black" fill-opacity="0.1"/>
</svg>
