<svg width="350" height="623" viewBox="0 0 350 623" fill="none" xmlns="http://www.w3.org/2000/svg">
<path fill-rule="evenodd" clip-rule="evenodd" d="M364.481 42.407C345.518 49.6545 330.2 63.792 320.019 83.4328C315.027 93.0637 314.268 97.1673 314.18 115.081C314.089 133.353 314.784 137.196 320.372 149.295C328.356 166.587 345.022 182.293 362.293 188.8C380.038 195.486 408.9 194.201 424.81 186.016C447.037 174.58 459.738 158.688 465.913 134.588C474.686 100.341 457.489 63.1377 425.193 46.4955C415.521 41.5122 410.551 40.4982 393.161 39.9543C379.145 39.5167 369.995 40.2988 364.481 42.407ZM266.886 70.8597C187.822 130.198 165.015 223.373 208.037 311.292C225.611 347.209 259.294 382.97 294.359 402.94C302.82 407.759 319.007 414.889 330.328 418.785C349.945 425.534 352.436 425.87 383.411 425.933C421.772 426.009 438.369 422.198 469.356 406.195C498.24 391.275 514.702 371.634 522.089 343.275C533.598 299.085 511.559 253.497 468.994 233.455C457.342 227.969 451.546 226.678 435.411 225.969C415.272 225.085 412.085 225.815 375.828 239.632C352.14 248.656 321.936 237.136 302.2 211.546C272.021 172.418 263.792 115.857 281.716 70.7687C284.537 63.6772 286.587 57.6192 286.273 57.305C285.961 56.9908 277.236 63.0922 266.886 70.8597ZM167.459 129.706C126.2 172.567 96.9063 229.839 86.2788 288.415C81.1784 316.534 81.1525 369.147 86.229 396.748C109.245 521.929 206.199 620.038 331.76 645.208C360.789 651.028 421.477 650.469 451.085 644.11C550.678 622.718 633.982 553.879 672.759 460.922C714.729 360.313 699.816 244.017 633.763 156.818C626.754 147.568 616.739 135.836 611.507 130.748L601.995 121.497L609.945 137.797C626.271 171.263 633.661 204.348 633.661 243.95C633.661 275.215 629.735 298.373 619.645 326.598C592.783 401.755 529.208 459.644 450.578 480.539C431.379 485.642 424.716 486.32 392.078 486.483C353.589 486.673 346.194 485.618 314.078 475.348C264.53 459.508 215.83 422.117 186.301 377.248C139.314 305.854 133.831 213.842 171.938 136.206C177.641 124.589 182.134 115.081 181.922 115.081C181.712 115.081 175.203 121.661 167.459 129.706Z" fill="black" fill-opacity="0.1"/>
<path fill-rule="evenodd" clip-rule="evenodd" d="M550.674 0.000854492C685.913 60.4536 780 194.871 780 350.985C780 563.659 605.391 736.064 390 736.064C174.609 736.064 0 563.659 0 350.985C0 194.881 94.0747 60.4708 229.3 0.0124512C106.213 58.9703 21.3495 183.549 21.3495 327.699C21.3495 528.73 186.4 691.697 389.999 691.697C593.599 691.697 758.649 528.73 758.649 327.699C758.649 183.54 673.774 58.954 550.674 0.000854492Z" fill="black" fill-opacity="0.1"/>
</svg>
