<svg width="397" height="140" viewBox="0 0 397 140" fill="none" xmlns="http://www.w3.org/2000/svg">
<path fill-rule="evenodd" clip-rule="evenodd" d="M185.511 21.5841C175.86 25.2729 168.063 32.4685 162.881 42.4652C160.34 47.3671 159.954 49.4557 159.909 58.5735C159.863 67.8732 160.217 69.8295 163.061 75.9874C167.125 84.7887 175.607 92.7828 184.398 96.0944C193.429 99.4976 208.119 98.8436 216.217 94.6773C227.531 88.8569 233.995 80.768 237.138 68.5018C241.603 51.0713 232.85 32.1355 216.412 23.665C211.49 21.1287 208.96 20.6126 200.109 20.3358C192.975 20.113 188.318 20.5111 185.511 21.5841ZM135.838 36.0658C95.5964 66.2676 83.9885 113.691 105.885 158.44C114.83 176.721 131.974 194.922 149.821 205.086C154.127 207.539 162.366 211.168 168.128 213.151C178.113 216.586 179.381 216.757 195.146 216.789C214.671 216.828 223.118 214.888 238.89 206.743C253.591 199.149 261.97 189.152 265.73 174.718C271.588 152.227 260.37 129.023 238.706 118.823C232.775 116.03 229.825 115.373 221.613 115.013C211.363 114.563 209.741 114.934 191.287 121.967C179.23 126.56 163.857 120.696 153.812 107.671C138.451 87.7563 134.263 58.9683 143.386 36.0195C144.822 32.4101 145.865 29.3267 145.706 29.1668C145.547 29.0069 141.106 32.1123 135.838 36.0658ZM85.2325 66.0172C64.2323 87.8324 49.3227 116.982 43.9136 146.796C41.3177 161.108 41.3044 187.886 43.8882 201.935C55.6031 265.649 104.95 315.584 168.857 328.395C183.632 331.357 214.521 331.072 229.591 327.835C280.281 316.948 322.68 281.91 342.417 234.598C363.779 183.39 356.188 124.199 322.569 79.8163C319.001 75.1085 313.904 69.137 311.241 66.5477L306.4 61.8388L310.446 70.135C318.756 87.1685 322.517 104.008 322.517 124.164C322.517 140.078 320.519 151.864 315.383 166.23C301.711 204.483 269.353 233.947 229.332 244.582C219.561 247.179 216.17 247.525 199.557 247.607C179.968 247.704 176.204 247.167 159.857 241.94C134.639 233.878 109.852 214.847 94.8222 192.01C70.9074 155.672 68.1163 108.84 87.5119 69.3256C90.4144 63.4125 92.7016 58.5735 92.5935 58.5735C92.4866 58.5735 89.1738 61.9226 85.2325 66.0172Z" fill="black" fill-opacity="0.1"/>
<path fill-rule="evenodd" clip-rule="evenodd" d="M280.278 6.10352e-05C349.112 30.7688 397 99.1838 397 178.643C397 286.888 308.129 374.638 198.5 374.638C88.8715 374.638 0 286.888 0 178.643C0 99.1875 47.8836 30.7752 116.712 0.00439453C54.0616 30.0117 10.8665 93.4203 10.8665 166.791C10.8665 269.11 94.8727 352.056 198.5 352.056C302.127 352.056 386.133 269.11 386.133 166.791C386.133 93.4168 342.934 30.0056 280.278 6.10352e-05Z" fill="black" fill-opacity="0.1"/>
</svg>
