<svg width="221" height="316" viewBox="0 0 221 316" fill="none" xmlns="http://www.w3.org/2000/svg">
<path fill-rule="evenodd" clip-rule="evenodd" d="M42.4755 18.2054C34.3346 21.3169 27.7583 27.3862 23.3874 35.8182C21.2443 39.9529 20.9187 41.7146 20.8806 49.4053C20.8415 57.2494 21.1401 58.8996 23.539 64.0936C26.9667 71.5173 34.1216 78.2602 41.536 81.0535C49.1541 83.924 61.5449 83.3724 68.3752 79.8582C77.9178 74.9488 83.3705 68.1259 86.0215 57.7796C89.7878 43.0773 82.405 27.1053 68.5398 19.9607C64.3875 17.8213 62.2537 17.3859 54.7882 17.1525C48.7709 16.9646 44.8428 17.3004 42.4755 18.2054ZM0.576759 30.4205C-33.3662 55.8951 -43.1572 95.8962 -24.6877 133.641C-17.143 149.06 -2.68256 164.413 12.3714 172.986C16.0037 175.055 22.953 178.116 27.8131 179.789C36.2349 182.686 37.3046 182.83 50.6024 182.857C67.0711 182.89 74.1962 181.254 87.4995 174.383C99.8997 167.978 106.967 159.546 110.138 147.371C115.079 128.4 105.617 108.828 87.3442 100.224C82.3417 97.8691 79.8535 97.3148 72.9265 97.0106C64.2806 96.6311 62.9123 96.9445 47.3468 102.876C37.1772 106.75 24.2106 101.805 15.7377 90.8184C2.78128 74.0204 -0.751526 49.7383 6.94379 30.3814C8.15488 27.3369 9.03483 24.7362 8.89996 24.6013C8.76601 24.4664 5.02019 27.0858 0.576759 30.4205ZM-42.1079 55.6839C-59.8212 74.0846 -72.3971 98.6719 -76.9596 123.819C-79.1493 135.891 -79.1604 158.478 -76.981 170.328C-67.0998 224.069 -25.4764 266.189 28.428 276.994C40.8904 279.493 66.9446 279.253 79.6554 276.523C122.412 267.339 158.175 237.786 174.822 197.879C192.841 154.686 186.438 104.759 158.081 67.3232C155.072 63.3523 150.773 58.3154 148.526 56.1314L144.443 52.1595L147.856 59.1572C154.865 73.5247 158.037 87.7284 158.037 104.73C158.037 118.152 156.352 128.094 152.02 140.212C140.488 172.477 113.195 197.33 79.4377 206.3C71.1955 208.491 68.3352 208.782 54.3231 208.852C37.7995 208.934 34.6248 208.481 20.8369 204.072C-0.434333 197.271 -21.3418 181.219 -34.0191 161.956C-54.1909 131.306 -56.5451 91.8044 -40.1853 58.4745C-37.737 53.4869 -35.8079 49.4053 -35.899 49.4053C-35.9892 49.4053 -38.7835 52.2302 -42.1079 55.6839Z" fill="white" fill-opacity="0.2"/>
<path fill-rule="evenodd" clip-rule="evenodd" d="M122.41 0C180.47 25.953 220.862 83.6596 220.862 150.681C220.862 241.984 145.901 316 53.4311 316C-39.0386 316 -114 241.984 -114 150.681C-114 83.6638 -73.6126 25.9602 -15.5587 0.00485229C-68.4016 25.316 -104.834 78.7992 -104.834 140.684C-104.834 226.989 -33.9767 296.953 53.4307 296.953C140.838 296.953 211.696 226.989 211.696 140.684C211.696 78.7953 175.258 25.3092 122.41 0Z" fill="white" fill-opacity="0.2"/>
</svg>
