<svg width="88" height="117" viewBox="0 0 88 117" fill="none" xmlns="http://www.w3.org/2000/svg">
<path fill-rule="evenodd" clip-rule="evenodd" d="M59.4305 0.392189C76.1005 6.40681 88 22.2046 88 40.7465C88 64.4678 68.5244 83.6977 44.5 83.6977C20.4756 83.6977 1 64.4678 1 40.7465C1 21.7861 13.4426 5.69516 30.7053 0C14.7996 5.60786 3.41667 20.6145 3.41667 38.2462C3.41667 60.6688 21.8261 78.846 44.5353 78.846C67.2445 78.846 85.6539 60.6688 85.6539 38.2462C85.6539 21.0107 74.7767 6.28358 59.4305 0.392189Z" fill="white"/>
<path fill-rule="evenodd" clip-rule="evenodd" d="M30.7679 9.50166C21.9493 16.1202 19.4055 26.5128 24.204 36.3192C26.1642 40.3253 29.9211 44.314 33.8323 46.5414C34.776 47.0789 36.5815 47.8742 37.8442 48.3087C40.0322 49.0615 40.3102 49.099 43.765 49.106C48.0437 49.1144 49.8949 48.6894 53.3512 46.9044C56.5729 45.2403 58.4091 43.0496 59.2329 39.8864C60.5166 34.9576 58.0584 29.8727 53.3109 27.6373C52.0112 27.0254 51.3647 26.8814 49.565 26.8023C47.3187 26.7037 46.9632 26.7852 42.9192 28.3263C40.277 29.3328 36.9082 28.0479 34.7069 25.1936C31.3407 20.8293 30.4228 14.5206 32.4222 9.49151C32.7368 8.70053 32.9654 8.02483 32.9304 7.98979C32.8956 7.95475 31.9224 8.63528 30.7679 9.50166ZM19.6781 16.0653C15.076 20.846 11.8087 27.2339 10.6233 33.7674C10.0545 36.9038 10.0516 42.7721 10.6178 45.8507C13.185 59.8133 23.9991 70.7562 38.0039 73.5636C41.2418 74.2127 48.0109 74.1504 51.3132 73.4411C62.4217 71.0551 71.7133 63.3769 76.0384 53.0087C80.7197 41.7869 79.0563 28.8154 71.6889 19.0893C70.9071 18.0576 69.7901 16.749 69.2065 16.1816L68.1456 15.1496L69.0322 16.9677C70.8532 20.7005 71.6775 24.3907 71.6775 28.8079C71.6775 32.2952 71.2396 34.8781 70.1142 38.0263C67.118 46.4092 60.027 52.8661 51.2567 55.1967C49.1153 55.7658 48.3722 55.8415 44.7317 55.8596C40.4387 55.8809 39.6139 55.7632 36.0317 54.6177C30.5053 52.8509 25.0733 48.6804 21.7796 43.6757C16.5389 35.7126 15.9272 25.4497 20.1776 16.7903C20.8137 15.4945 21.3149 14.4341 21.2912 14.4341C21.2678 14.4341 20.5418 15.168 19.6781 16.0653Z" fill="white"/>
<path d="M53.2 14.4422C53.2 19.3138 49.2508 23.2631 44.3792 23.2631C39.5076 23.2631 35.5583 19.3138 35.5583 14.4422C35.5583 9.57062 39.5076 5.6214 44.3792 5.6214C49.2508 5.6214 53.2 9.57062 53.2 14.4422Z" fill="white"/>
<path d="M17.1531 102.527C16.338 102.527 15.4883 102.31 14.6039 101.876C13.7196 101.425 12.7051 100.602 11.5606 99.4052L6.09823 93.6827V102.266H3.7572V88.2203C3.7572 87.336 3.63582 86.6857 3.39305 86.2695C3.15027 85.836 2.66473 85.6192 1.93641 85.6192H1.41618V85.099H3.7572C4.39882 85.099 4.87569 85.1857 5.18783 85.3591C5.51731 85.5152 5.75141 85.81 5.89014 86.2435C6.02886 86.677 6.09823 87.336 6.09823 88.2203V93.2926L11.5606 87.8302L12.0808 87.2839C12.5664 86.7811 12.9739 86.3909 13.3034 86.1134C13.6329 85.8186 14.023 85.5759 14.4739 85.3851C14.9247 85.1944 15.4276 85.099 15.9825 85.099H17.2831V85.7493C16.5548 85.7493 15.9219 85.8793 15.3843 86.1394C14.8467 86.3822 14.2224 86.8591 13.5115 87.5701L8.43925 92.6423L14.4219 98.885C15.1849 99.6653 15.9565 100.324 16.7369 100.862C17.5172 101.382 18.2195 101.686 18.8438 101.772V102.266C18.3236 102.44 17.76 102.527 17.1531 102.527ZM24.6073 102.527C23.4282 102.527 22.405 102.249 21.538 101.694C20.671 101.122 20.012 100.35 19.5611 99.3792C19.1103 98.4081 18.8848 97.333 18.8848 96.1538C18.8848 94.9746 19.1103 93.8995 19.5611 92.9284C20.012 91.9573 20.671 91.1943 21.538 90.6394C22.405 90.0672 23.4282 89.781 24.6073 89.781C25.7865 89.781 26.8096 90.0672 27.6767 90.6394C28.5437 91.1943 29.2027 91.9573 29.6535 92.9284C30.1044 93.8995 30.3298 94.9746 30.3298 96.1538C30.3298 97.333 30.1044 98.4081 29.6535 99.3792C29.2027 100.35 28.5437 101.122 27.6767 101.694C26.8096 102.249 25.7865 102.527 24.6073 102.527ZM24.6073 101.486C25.249 101.486 25.8125 101.252 26.2981 100.784C26.801 100.316 27.1825 99.674 27.4426 98.859C27.72 98.044 27.8588 97.1422 27.8588 96.1538C27.8588 95.1654 27.72 94.2637 27.4426 93.4486C27.1825 92.6336 26.801 91.992 26.2981 91.5238C25.8125 91.0556 25.249 90.8215 24.6073 90.8215C23.9657 90.8215 23.3935 91.0556 22.8906 91.5238C22.405 91.992 22.0235 92.6336 21.7461 93.4486C21.486 94.2637 21.3559 95.1654 21.3559 96.1538C21.3559 97.1422 21.486 98.044 21.7461 98.859C22.0235 99.674 22.405 100.316 22.8906 100.784C23.3935 101.252 23.9657 101.486 24.6073 101.486ZM33.7705 93.1625C33.7705 92.2781 33.6491 91.6278 33.4063 91.2117C33.1635 90.7781 32.678 90.5614 31.9497 90.5614H31.4294V90.0411H33.7705C34.4294 90.0411 34.9236 90.1365 35.2531 90.3273C35.5999 90.5007 35.8427 90.7955 35.9814 91.2117H36.1115C36.4236 90.8128 36.8658 90.4747 37.4381 90.1972C38.0103 89.9198 38.7386 89.781 39.623 89.781C41.1143 89.781 42.2675 90.388 43.0825 91.6018C43.8975 92.7983 44.3051 94.3157 44.3051 96.1538C44.3051 98.0093 43.8802 99.5353 43.0305 100.732C42.1981 101.928 40.9756 102.527 39.3629 102.527C38.7039 102.527 38.123 102.457 37.6201 102.319C37.1172 102.18 36.6144 101.989 36.1115 101.746V107.209H33.7705V93.1625ZM38.5826 101.486C39.6924 101.486 40.5074 101.001 41.0276 100.03C41.5652 99.0584 41.834 97.7665 41.834 96.1538C41.834 94.5584 41.5825 93.2752 41.0796 92.3041C40.5768 91.3157 39.8311 90.8215 38.8427 90.8215C37.6808 90.8215 36.7704 91.3417 36.1115 92.3822V100.706C36.6317 100.949 37.0826 101.139 37.4641 101.278C37.8456 101.417 38.2184 101.486 38.5826 101.486ZM45.412 102.136C45.412 101.876 45.4987 101.66 45.6721 101.486C45.8455 101.313 46.0622 101.226 46.3224 101.226H47.1027C47.6403 100.03 48.0304 98.7203 48.2732 97.2983C48.5333 95.859 48.6634 94.4804 48.6634 93.1625C48.6634 92.2781 48.542 91.6278 48.2992 91.2117C48.0564 90.7781 47.5709 90.5614 46.8426 90.5614V90.0411H57.2471V101.226H58.2876C58.5477 101.226 58.7645 101.313 58.9379 101.486C59.1113 101.66 59.198 101.876 59.198 102.136V106.298H58.1575C58.0188 104.842 57.7413 103.801 57.3252 103.177C56.909 102.57 56.276 102.266 55.4263 102.266H49.1836C48.3339 102.266 47.701 102.57 47.2848 103.177C46.8686 103.801 46.5911 104.842 46.4524 106.298H45.412V102.136ZM54.9061 101.226V91.0816H50.3541C50.3541 93.3533 50.2414 95.2954 50.016 96.9081C49.7905 98.5035 49.4264 99.9428 48.9235 101.226H54.9061ZM66.571 102.527C65.3918 102.527 64.3687 102.249 63.5016 101.694C62.6346 101.122 61.9756 100.35 61.5248 99.3792C61.0739 98.4081 60.8485 97.333 60.8485 96.1538C60.8485 94.9746 61.0739 93.8995 61.5248 92.9284C61.9756 91.9573 62.6346 91.1943 63.5016 90.6394C64.3687 90.0672 65.3918 89.781 66.571 89.781C67.7502 89.781 68.7733 90.0672 69.6403 90.6394C70.5074 91.1943 71.1663 91.9573 71.6172 92.9284C72.068 93.8995 72.2935 94.9746 72.2935 96.1538C72.2935 97.333 72.068 98.4081 71.6172 99.3792C71.1663 100.35 70.5074 101.122 69.6403 101.694C68.7733 102.249 67.7502 102.527 66.571 102.527ZM66.571 101.486C67.2126 101.486 67.7762 101.252 68.2617 100.784C68.7646 100.316 69.1461 99.674 69.4062 98.859C69.6837 98.044 69.8224 97.1422 69.8224 96.1538C69.8224 95.1654 69.6837 94.2637 69.4062 93.4486C69.1461 92.6336 68.7646 91.992 68.2617 91.5238C67.7762 91.0556 67.2126 90.8215 66.571 90.8215C65.9294 90.8215 65.3571 91.0556 64.8542 91.5238C64.3687 91.992 63.9872 92.6336 63.7097 93.4486C63.4496 94.2637 63.3196 95.1654 63.3196 96.1538C63.3196 97.1422 63.4496 98.044 63.7097 98.859C63.9872 99.674 64.3687 100.316 64.8542 100.784C65.3571 101.252 65.9294 101.486 66.571 101.486ZM75.7081 93.1625C75.7081 92.2781 75.5867 91.6278 75.3439 91.2117C75.1011 90.7781 74.6156 90.5614 73.8873 90.5614H73.4971V90.0411H75.7081C76.3497 90.0411 76.8266 90.1278 77.1387 90.3013C77.4682 90.4573 77.7023 90.7521 77.841 91.1856C77.9797 91.6192 78.0491 92.2781 78.0491 93.1625V95.6336H83.2514V90.0411H85.5924V99.1451C85.5924 100.03 85.7138 100.688 85.9566 101.122C86.1993 101.538 86.6849 101.746 87.4132 101.746H87.8034V102.266H85.5924C84.9508 102.266 84.4652 102.188 84.1358 102.032C83.8236 101.859 83.5982 101.556 83.4595 101.122C83.3207 100.688 83.2514 100.03 83.2514 99.1451V96.674H78.0491V102.266H75.7081V93.1625Z" fill="white"/>
<path d="M5.31456 114.551C4.78384 114.551 4.30881 114.289 3.88948 113.765L2.75924 112.34V114.453H1.87471V111.013C1.87471 110.679 1.82884 110.433 1.73711 110.276C1.64538 110.112 1.46192 110.03 1.18673 110.03H0.990172V109.834H1.87471C2.11713 109.834 2.29732 109.866 2.41525 109.932C2.53974 109.991 2.6282 110.102 2.68061 110.266C2.73303 110.43 2.75924 110.679 2.75924 111.013V112.192L3.98776 110.472C4.13846 110.263 4.31209 110.106 4.50865 110.001C4.71177 109.889 4.96402 109.834 5.26542 109.834H5.51112V110.079C5.1311 110.079 4.83626 110.227 4.62659 110.522L3.54549 112.045L4.67573 113.47C4.85919 113.706 5.03937 113.889 5.21628 114.02C5.39974 114.151 5.5963 114.233 5.80597 114.266V114.453C5.66182 114.518 5.49802 114.551 5.31456 114.551ZM7.1138 109.244C6.9631 109.244 6.83206 109.182 6.72068 109.057C6.61584 108.933 6.56343 108.785 6.56343 108.615C6.56343 108.477 6.60274 108.369 6.68136 108.291C6.76654 108.212 6.87793 108.173 7.01552 108.173C7.16622 108.173 7.29399 108.235 7.39882 108.359C7.51021 108.484 7.5659 108.631 7.5659 108.802C7.5659 108.939 7.52331 109.047 7.43813 109.126C7.35951 109.205 7.2514 109.244 7.1138 109.244ZM6.74033 111.013C6.74033 110.679 6.69447 110.433 6.60274 110.276C6.51101 110.112 6.32755 110.03 6.05236 110.03H5.8558V109.834H6.74033C6.98276 109.834 7.16294 109.866 7.28088 109.932C7.40537 109.991 7.49383 110.102 7.54624 110.266C7.59866 110.43 7.62487 110.679 7.62487 111.013V114.453H6.74033V111.013ZM10.9084 114.551C10.4628 114.551 10.0763 114.446 9.74867 114.237C9.42106 114.02 9.17208 113.729 9.00173 113.362C8.83138 112.995 8.7462 112.589 8.7462 112.143C8.7462 111.698 8.83138 111.291 9.00173 110.925C9.17208 110.558 9.42106 110.269 9.74867 110.06C10.0763 109.843 10.4628 109.735 10.9084 109.735C11.3539 109.735 11.7405 109.843 12.0681 110.06C12.3957 110.269 12.6447 110.558 12.8151 110.925C12.9854 111.291 13.0706 111.698 13.0706 112.143C13.0706 112.589 12.9854 112.995 12.8151 113.362C12.6447 113.729 12.3957 114.02 12.0681 114.237C11.7405 114.446 11.3539 114.551 10.9084 114.551ZM10.9084 114.158C11.1508 114.158 11.3638 114.07 11.5472 113.893C11.7372 113.716 11.8814 113.473 11.9797 113.165C12.0845 112.857 12.1369 112.517 12.1369 112.143C12.1369 111.77 12.0845 111.429 11.9797 111.121C11.8814 110.813 11.7372 110.571 11.5472 110.394C11.3638 110.217 11.1508 110.128 10.9084 110.128C10.666 110.128 10.4497 110.217 10.2597 110.394C10.0763 110.571 9.93213 110.813 9.8273 111.121C9.72901 111.429 9.67987 111.77 9.67987 112.143C9.67987 112.517 9.72901 112.857 9.8273 113.165C9.93213 113.473 10.0763 113.716 10.2597 113.893C10.4497 114.07 10.666 114.158 10.9084 114.158ZM17.8301 114.551C17.2994 114.551 16.8244 114.289 16.405 113.765L15.2748 112.34V114.453H14.3902V111.013C14.3902 110.679 14.3444 110.433 14.2527 110.276C14.1609 110.112 13.9775 110.03 13.7023 110.03H13.5057V109.834H14.3902C14.6327 109.834 14.8129 109.866 14.9308 109.932C15.0553 109.991 15.1437 110.102 15.1962 110.266C15.2486 110.43 15.2748 110.679 15.2748 111.013V112.192L16.5033 110.472C16.654 110.263 16.8276 110.106 17.0242 110.001C17.2273 109.889 17.4796 109.834 17.781 109.834H18.0267V110.079C17.6466 110.079 17.3518 110.227 17.1421 110.522L16.061 112.045L17.1913 113.47C17.3747 113.706 17.5549 113.889 17.7318 114.02C17.9153 114.151 18.1118 114.233 18.3215 114.266V114.453C18.1774 114.518 18.0136 114.551 17.8301 114.551ZM19.4328 116.124C19.7538 116.124 20.0159 116.048 20.219 115.898C20.4287 115.753 20.6089 115.485 20.7596 115.092L20.9561 114.551L19.3836 110.718C19.2002 110.246 18.8398 109.984 18.3025 109.932V109.735H19.1379C19.708 109.735 20.1011 109.997 20.3173 110.522L21.4377 113.244L22.6761 109.834H23.1675L21.251 115.092C21.061 115.609 20.8513 115.96 20.622 116.143C20.3927 116.327 20.0945 116.418 19.7276 116.418H19.4328V116.124ZM24.2945 111.013C24.2945 110.679 24.2486 110.433 24.1569 110.276C24.0652 110.112 23.8817 110.03 23.6065 110.03H23.4591V109.834H24.2945C24.5369 109.834 24.7171 109.866 24.835 109.932C24.9595 109.991 25.048 110.102 25.1004 110.266C25.1528 110.43 25.179 110.679 25.179 111.013V114.06H26.7024V109.834H27.5869V114.06H29.1103V109.834H29.9948V114.453H24.2945V111.013ZM31.5504 111.013C31.5504 110.679 31.5046 110.433 31.4128 110.276C31.3211 110.112 31.1377 110.03 30.8625 110.03H30.715V109.834H31.5504C31.7929 109.834 31.973 109.866 32.091 109.932C32.2155 109.991 32.3039 110.102 32.3563 110.266C32.4088 110.43 32.435 110.679 32.435 111.013V113.568L34.4989 109.834H35.3834V114.453H34.4989V110.718L32.435 114.453H31.5504V111.013ZM36.9348 111.013C36.9348 110.679 36.8889 110.433 36.7972 110.276C36.7055 110.112 36.522 110.03 36.2468 110.03H36.0994V109.834H36.9348C37.1772 109.834 37.3574 109.866 37.4754 109.932C37.5998 109.991 37.6883 110.102 37.7407 110.266C37.7931 110.43 37.8193 110.679 37.8193 111.013V111.947H39.785V109.834H40.6695V113.273C40.6695 113.608 40.7154 113.857 40.8071 114.02C40.8988 114.178 41.0823 114.256 41.3575 114.256H41.5049V114.453H40.6695C40.4271 114.453 40.2436 114.423 40.1191 114.364C40.0012 114.299 39.916 114.184 39.8636 114.02C39.8112 113.857 39.785 113.608 39.785 113.273V112.34H37.8193V114.453H36.9348V111.013ZM45.8365 114.551C45.3058 114.551 44.8308 114.289 44.4114 113.765L43.2812 112.34V114.453H42.3966V111.013C42.3966 110.679 42.3508 110.433 42.2591 110.276C42.1673 110.112 41.9839 110.03 41.7087 110.03H41.5121V109.834H42.3966C42.6391 109.834 42.8193 109.866 42.9372 109.932C43.0617 109.991 43.1501 110.102 43.2026 110.266C43.255 110.43 43.2812 110.679 43.2812 111.013V112.192L44.5097 110.472C44.6604 110.263 44.834 110.106 45.0306 110.001C45.2337 109.889 45.486 109.834 45.7874 109.834H46.0331V110.079C45.653 110.079 45.3582 110.227 45.1485 110.522L44.0674 112.045L45.1977 113.47C45.3811 113.706 45.5613 113.889 45.7382 114.02C45.9217 114.151 46.1182 114.233 46.3279 114.266V114.453C46.1838 114.518 46.02 114.551 45.8365 114.551ZM48.2156 114.551C48.0059 114.551 47.793 114.509 47.5768 114.423C47.3606 114.332 47.1738 114.184 47.0166 113.981C46.8659 113.778 46.7905 113.509 46.7905 113.175C46.7905 112.677 47.0198 112.323 47.4785 112.114C47.9437 111.904 48.5498 111.799 49.2967 111.799H49.5915C49.5915 111.157 49.5031 110.718 49.3262 110.482C49.1493 110.246 48.8937 110.128 48.5596 110.128C48.2647 110.128 48.0289 110.191 47.852 110.315C47.6751 110.44 47.5506 110.656 47.4785 110.964H47.0362C47.0362 110.741 47.0493 110.567 47.0755 110.443C47.1017 110.312 47.1705 110.191 47.2819 110.079C47.3999 109.961 47.5932 109.876 47.8618 109.824C48.137 109.765 48.4351 109.735 48.7562 109.735C49.2869 109.735 49.7062 109.879 50.0142 110.168C50.3221 110.45 50.4761 110.993 50.4761 111.799V114.453H49.9847L49.6407 114.011H49.5915C49.4736 114.161 49.3 114.289 49.0707 114.394C48.8413 114.499 48.5563 114.551 48.2156 114.551ZM48.6579 114.109C48.8741 114.109 49.0543 114.056 49.1984 113.952C49.3426 113.847 49.4736 113.703 49.5915 113.519V112.192H49.2967C48.8118 112.192 48.4286 112.284 48.1468 112.468C47.8651 112.644 47.7242 112.88 47.7242 113.175C47.7242 113.477 47.8127 113.709 47.9896 113.873C48.173 114.03 48.3958 114.109 48.6579 114.109ZM51.9842 111.013C51.9842 110.679 51.9383 110.433 51.8466 110.276C51.7548 110.112 51.5714 110.03 51.2962 110.03H51.1488V109.834H51.9842C52.2266 109.834 52.4068 109.866 52.5247 109.932C52.6492 109.991 52.7377 110.102 52.7901 110.266C52.8425 110.43 52.8687 110.679 52.8687 111.013V113.568L54.9326 109.834H55.8171V114.453H54.9326V110.718L52.8687 114.453H51.9842V111.013ZM53.9007 109.332C53.3372 109.332 52.9113 109.07 52.623 108.546L52.8196 108.399C52.9506 108.53 53.098 108.628 53.2618 108.694C53.4256 108.759 53.6386 108.792 53.9007 108.792C54.1627 108.792 54.3757 108.759 54.5395 108.694C54.7033 108.628 54.8507 108.53 54.9818 108.399L55.1783 108.546C54.89 109.07 54.4641 109.332 53.9007 109.332ZM63.2949 114.551C62.7642 114.551 62.2892 114.289 61.8698 113.765L60.7396 112.34V114.453H59.8551V111.013C59.8551 110.679 59.8092 110.433 59.7175 110.276C59.6257 110.112 59.4423 110.03 59.1671 110.03H58.9705V109.834H59.8551C60.0975 109.834 60.2777 109.866 60.3956 109.932C60.5201 109.991 60.6086 110.102 60.661 110.266C60.7134 110.43 60.7396 110.679 60.7396 111.013V112.192L61.9681 110.472C62.1188 110.263 62.2924 110.106 62.489 110.001C62.6921 109.889 62.9444 109.834 63.2458 109.834H63.4915V110.079C63.1115 110.079 62.8166 110.227 62.6069 110.522L61.5258 112.045L62.6561 113.47C62.8395 113.706 63.0197 113.889 63.1966 114.02C63.3801 114.151 63.5767 114.233 63.7863 114.266V114.453C63.6422 114.518 63.4784 114.551 63.2949 114.551ZM65.674 114.551C65.4644 114.551 65.2514 114.509 65.0352 114.423C64.819 114.332 64.6322 114.184 64.475 113.981C64.3243 113.778 64.2489 113.509 64.2489 113.175C64.2489 112.677 64.4783 112.323 64.9369 112.114C65.4021 111.904 66.0082 111.799 66.7551 111.799H67.05C67.05 111.157 66.9615 110.718 66.7846 110.482C66.6077 110.246 66.3522 110.128 66.018 110.128C65.7232 110.128 65.4873 110.191 65.3104 110.315C65.1335 110.44 65.009 110.656 64.9369 110.964H64.4946C64.4946 110.741 64.5077 110.567 64.534 110.443C64.5602 110.312 64.629 110.191 64.7403 110.079C64.8583 109.961 65.0516 109.876 65.3202 109.824C65.5954 109.765 65.8935 109.735 66.2146 109.735C66.7453 109.735 67.1646 109.879 67.4726 110.168C67.7805 110.45 67.9345 110.993 67.9345 111.799V114.453H67.4431L67.0991 114.011H67.05C66.932 114.161 66.7584 114.289 66.5291 114.394C66.2997 114.499 66.0147 114.551 65.674 114.551ZM66.1163 114.109C66.3325 114.109 66.5127 114.056 66.6568 113.952C66.801 113.847 66.932 113.703 67.05 113.519V112.192H66.7551C66.2703 112.192 65.887 112.284 65.6052 112.468C65.3235 112.644 65.1826 112.88 65.1826 113.175C65.1826 113.477 65.2711 113.709 65.448 113.873C65.6314 114.03 65.8542 114.109 66.1163 114.109ZM69.4524 111.013C69.4524 110.679 69.4065 110.433 69.3148 110.276C69.2231 110.112 69.0396 110.03 68.7644 110.03H68.5679V109.834H69.4524C69.7014 109.834 69.8881 109.87 70.0126 109.942C70.1437 110.007 70.2354 110.119 70.2878 110.276H70.3369C70.4549 110.125 70.622 109.997 70.8382 109.893C71.0544 109.788 71.3296 109.735 71.6637 109.735C72.2272 109.735 72.6629 109.965 72.9709 110.423C73.2788 110.875 73.4328 111.449 73.4328 112.143C73.4328 112.844 73.2723 113.421 72.9512 113.873C72.6367 114.325 72.1748 114.551 71.5655 114.551C71.3165 114.551 71.097 114.525 70.907 114.473C70.717 114.42 70.527 114.348 70.3369 114.256V116.32H69.4524V111.013ZM71.2706 114.158C71.69 114.158 71.9979 113.975 72.1945 113.608C72.3976 113.241 72.4991 112.753 72.4991 112.143C72.4991 111.54 72.4041 111.056 72.2141 110.689C72.0241 110.315 71.7424 110.128 71.3689 110.128C70.9299 110.128 70.5859 110.325 70.3369 110.718V113.863C70.5335 113.955 70.7039 114.027 70.848 114.079C70.9922 114.132 71.133 114.158 71.2706 114.158ZM75.6941 114.551C75.4845 114.551 75.2715 114.509 75.0553 114.423C74.8391 114.332 74.6523 114.184 74.4951 113.981C74.3444 113.778 74.269 113.509 74.269 113.175C74.269 112.677 74.4984 112.323 74.957 112.114C75.4222 111.904 76.0283 111.799 76.7752 111.799H77.0701C77.0701 111.157 76.9816 110.718 76.8047 110.482C76.6278 110.246 76.3723 110.128 76.0381 110.128C75.7433 110.128 75.5074 110.191 75.3305 110.315C75.1536 110.44 75.0291 110.656 74.957 110.964H74.5148C74.5148 110.741 74.5279 110.567 74.5541 110.443C74.5803 110.312 74.6491 110.191 74.7605 110.079C74.8784 109.961 75.0717 109.876 75.3403 109.824C75.6155 109.765 75.9136 109.735 76.2347 109.735C76.7654 109.735 77.1847 109.879 77.4927 110.168C77.8006 110.45 77.9546 110.993 77.9546 111.799V114.453H77.4632L77.1192 114.011H77.0701C76.9521 114.161 76.7785 114.289 76.5492 114.394C76.3199 114.499 76.0348 114.551 75.6941 114.551ZM76.1364 114.109C76.3526 114.109 76.5328 114.056 76.6769 113.952C76.8211 113.847 76.9521 113.703 77.0701 113.519V112.192H76.7752C76.2904 112.192 75.9071 112.284 75.6253 112.468C75.3436 112.644 75.2027 112.88 75.2027 113.175C75.2027 113.477 75.2912 113.709 75.4681 113.873C75.6515 114.03 75.8743 114.109 76.1364 114.109ZM80.6224 110.227H80.131C79.8231 110.227 79.5741 110.315 79.3841 110.492C79.1941 110.662 79.099 110.902 79.099 111.21H78.9025V110.62C78.9025 110.096 79.1482 109.834 79.6396 109.834H83.1286V110.227H81.5069V114.453H80.6224V110.227ZM85.6442 114.551C85.1987 114.551 84.8219 114.446 84.514 114.237C84.206 114.02 83.9734 113.732 83.8162 113.372C83.6589 113.005 83.5803 112.595 83.5803 112.143C83.5803 111.698 83.6589 111.291 83.8162 110.925C83.9734 110.558 84.1995 110.269 84.4943 110.06C84.7957 109.843 85.1463 109.735 85.5459 109.735C86.2077 109.735 86.6991 109.922 87.0202 110.296C87.3478 110.662 87.5116 111.196 87.5116 111.898L87.4919 112.291H84.514C84.514 112.841 84.6319 113.29 84.8678 113.637C85.1037 113.984 85.428 114.158 85.8408 114.158C86.1487 114.158 86.4075 114.092 86.6172 113.961C86.8334 113.83 87.0333 113.634 87.2167 113.372L87.4133 113.519C87.1971 113.88 86.9448 114.142 86.6565 114.305C86.3682 114.469 86.0308 114.551 85.6442 114.551ZM86.5779 111.898C86.5779 111.321 86.4927 110.882 86.3224 110.581C86.152 110.279 85.8932 110.128 85.5459 110.128C85.3494 110.128 85.1725 110.207 85.0152 110.364C84.858 110.515 84.7335 110.725 84.6417 110.993C84.5566 111.262 84.514 111.563 84.514 111.898H86.5779Z" fill="white"/>
</svg>
